<svg width="416" height="275" viewBox="0 0 416 275" fill="none" xmlns="http://www.w3.org/2000/svg">
<path fill-rule="evenodd" clip-rule="evenodd" d="M95.3152 3.49459C108.9 7.68779 121.915 16.2649 131.554 27.3765L138.894 35.8381L145.66 33.4664C174.627 23.3189 226.821 22.2672 262.387 31.1137L276.88 34.7195L284.607 26.1856C300.213 8.94913 320.448 0.100834 344.26 0.100834C367.326 0.100834 388.991 9.26358 402.224 24.6146C409.13 32.6279 408.769 34.8604 400.923 32.6244C397.849 31.7497 395.139 31.0332 394.9 31.0332C394.663 31.0332 397.939 36.0685 402.182 42.2241C406.425 48.3774 411.093 57.4117 412.555 62.2971C415.431 71.9188 416.211 98.0533 413.623 98.0533C412.747 98.0533 410.217 95.1529 407.998 91.6093L403.963 85.1652L402.982 97.1941C401.744 112.344 396.972 123.002 386.348 134.336C378.891 142.291 361.07 153.039 355.33 153.043C354.105 153.045 353.058 160.278 352.405 173.237C351.846 184.342 350.149 198.069 348.635 203.74C337.911 243.892 307.808 265.476 251.734 273.221C232.601 275.864 180.306 275.491 160.817 272.573C94.0987 262.587 63.9151 230.194 63.9151 168.583C63.9151 154.932 63.548 153.045 60.8865 153.043C54.7915 153.041 36.5258 142.911 29.4687 135.619C19.0686 124.874 13.2434 112.047 12.0891 97.3421L11.1342 85.1652L7.29897 91.6093C0.942907 102.29 -0.600436 100.051 0.190216 81.2983C0.970784 62.7786 4.93176 51.6344 15.2476 38.931C18.2447 35.2418 20.4405 31.9682 20.1273 31.6567C19.8142 31.3458 17.0887 31.7947 14.0708 32.654C6.3286 34.8604 5.9911 32.5989 12.8733 24.6146C31.1443 3.4188 66.0729 -5.529 95.3152 3.49459Z" fill="white"/>
<path fill-rule="evenodd" clip-rule="evenodd" d="M298.336 47.2481C316.32 53.8124 333.42 70.8765 343.018 94.2942C347.261 104.648 349.588 115.144 350.152 125.124C370.297 119.055 384.949 100.585 384.949 78.7424C384.949 51.9601 362.921 30.2491 335.749 30.2491C320.773 30.2491 307.36 36.8442 298.336 47.2481Z" fill="#171826"/>
<path fill-rule="evenodd" clip-rule="evenodd" d="M116.85 47.2487C98.8659 53.8136 81.7657 70.8777 72.1676 94.2954C67.9243 104.649 65.598 115.144 65.0339 125.125C44.8886 119.055 30.2363 100.585 30.2363 78.7425C30.2363 51.9607 52.2642 30.2497 79.4365 30.2497C94.4126 30.2497 107.826 36.8448 116.85 47.2487Z" fill="#171826"/>
<path d="M240.876 158.082C240.876 138.858 225.267 123.275 206.012 123.275C186.757 123.275 171.148 138.858 171.148 158.082V186.456C171.148 205.68 186.757 221.263 206.012 221.263C225.267 221.263 240.876 205.68 240.876 186.456V158.082Z" fill="#171826"/>
<path d="M142.638 129.597H142.604C133.861 129.597 126.773 136.673 126.773 145.401C126.773 154.13 133.861 161.206 142.604 161.206H142.638C151.38 161.206 158.468 154.13 158.468 145.401C158.468 136.673 151.38 129.597 142.638 129.597Z" fill="#171826"/>
<path d="M269.415 129.598H269.381C260.638 129.598 253.551 136.673 253.551 145.402C253.551 154.131 260.638 161.207 269.381 161.207H269.415C278.158 161.207 285.245 154.131 285.245 145.402C285.245 136.673 278.158 129.598 269.415 129.598Z" fill="#171826"/>
</svg>
